<?xml version="1.0" encoding="utf-8"?>
<!-- Generator: Adobe Illustrator 16.0.0, SVG Export Plug-In . SVG Version: 6.00 Build 0)  -->
<!DOCTYPE svg PUBLIC "-//W3C//DTD SVG 1.1//EN" "http://www.w3.org/Graphics/SVG/1.1/DTD/svg11.dtd">
<svg version="1.1" xmlns="http://www.w3.org/2000/svg" xmlns:xlink="http://www.w3.org/1999/xlink" x="0px" y="0px" width="26px"
	 height="26px" viewBox="0 0 26 26" enable-background="new 0 0 26 26" xml:space="preserve">
<g id="Layer_1">
	<g id="Layer_1_1_" display="none">
		<path display="inline" fill="#a2acb3" d="M12.885,1.025c-5.461,0-10.049,3.649-11.512,8.637l2.387,0.659
			c0.163-0.538,0.827-1.868,1.219-2.409c0.85-1.175,1.687-2.072,2.81-2.794l1.42,1.422c0.536-0.306,1.114-0.545,1.722-0.712V3.819
			c0.63-0.133,1.283-0.206,1.953-0.206c0.69,0,1.361,0.079,2.011,0.22v1.994c0.607,0.167,1.187,0.406,1.723,0.712l1.4-1.401
			c1.119,0.728,2.071,1.686,2.795,2.809l-1.396,1.394c0.308,0.536,0.546,1.114,0.713,1.723h1.974
			c0.139,0.64,0.213,1.301,0.213,1.981c0,0.68-0.074,1.342-0.213,1.982H20.13c-0.167,0.605-0.405,1.187-0.713,1.722l1.396,1.396
			c-0.724,1.123-1.676,2.08-2.795,2.809l-1.4-1.4c-0.536,0.305-1.114,0.545-1.723,0.711v1.994c-0.648,0.141-1.319,0.221-2.011,0.221
			c-0.67,0-1.323-0.072-1.953-0.207v-2.008c-0.608-0.166-1.187-0.406-1.722-0.711l-1.422,1.422c-1.123-0.725-2.082-1.676-2.81-2.795
			l1.479-1.49L1,14.975l-0.001,5.734l1.875-1.027c2.148,3.244,5.827,5.385,10.011,5.385c6.639,0,12.021-5.383,12.021-12.021
			C24.904,6.407,19.523,1.025,12.885,1.025z"/>
	</g>
	<g id="Layer_3" display="none">
		<g id="Shape_76" display="inline">
			<g>
				<path fill="#a2acb3" d="M11.87,17.504c3.101,0,5.623-3.068,5.623-6.841c0-3.772-2.522-6.84-5.623-6.84
					c-1.534,0-2.965,0.733-4.031,2.065C6.812,7.17,6.247,8.866,6.248,10.663C6.248,14.436,8.77,17.504,11.87,17.504z M11.87,5.321
					c2.272,0,4.123,2.396,4.123,5.341s-1.851,5.341-4.123,5.341c-2.273,0-4.123-2.396-4.125-5.341
					C7.745,7.717,9.595,5.321,11.87,5.321z M16.592,16.754c-0.414,0-0.75,0.335-0.75,0.75c0,0.413,0.336,0.749,0.75,0.749
					c2.562,0,4.648,2.085,4.648,4.647c0,0.33-0.27,0.601-0.602,0.601H3.098c-0.33,0-0.599-0.271-0.599-0.601
					c0-2.562,2.085-4.647,4.647-4.647c0.414,0,0.75-0.336,0.75-0.749c0-0.415-0.335-0.75-0.75-0.75C3.757,16.754,1,19.512,1,22.9
					C1,24.059,1.941,25,3.098,25h17.542c1.156,0,2.1-0.941,2.1-2.1C22.738,19.512,19.98,16.754,16.592,16.754z M12.417,2.698
					c0.674-0.203,1.11-0.188,1.702-0.188c2.273,0,4.123,2.396,4.123,5.341c0,0.528,0.066,1.031,0.021,1.542
					c-0.039,0.413,0.154,0.807,0.559,0.901c0.058,0.014,0.113,0.02,0.172,0.02c0.34,0,0.574-0.227,0.654-0.572
					c0.143-0.608,0.095-1.247,0.095-1.891c0-3.772-2.522-6.84-5.623-6.84c-0.852,0-1.686,0.041-2.446,0.49
					c-0.356,0.211-0.474,0.67-0.263,1.027C11.619,2.885,12.021,2.818,12.417,2.698z M18.991,13.755c-0.414,0-0.75,0.336-0.75,0.75
					s0.336,0.749,0.75,0.749c2.562,0,4.497,2.137,4.497,4.698c0,0.086-0.022,1.03,0.445,1.233c0.1,0.043,0.203,0.064,0.305,0.064
					c0.287,0,0.496-0.178,0.621-0.456c0.119-0.271,0.129-0.545,0.129-0.843C24.988,16.562,22.382,13.755,18.991,13.755z"/>
			</g>
		</g>
	</g>
	<g id="Layer_4" display="none">
		<path display="inline" fill="#a2acb3" d="M7.157,15.012V3.014c0-1.116-0.903-2.02-2.02-2.02H4.885c-1.117,0-2.02,0.904-2.02,2.02
			v11.998c-0.787,0.633-1.301,1.588-1.301,2.674s0.514,2.045,1.301,2.678v2.597c0,1.116,0.903,2.021,2.02,2.021h0.252
			c1.117,0,2.02-0.903,2.02-2.021v-2.597c0.787-0.633,1.301-1.592,1.301-2.678S7.943,15.645,7.157,15.012z M3.859,3.014
			c0-0.565,0.46-1.025,1.025-1.025h0.252c0.565,0,1.025,0.46,1.025,1.025v11.437c-0.362-0.129-0.746-0.213-1.151-0.213
			c-0.405,0-0.79,0.084-1.152,0.213L3.859,3.014L3.859,3.014z M6.163,22.959c0,0.564-0.46,1.023-1.025,1.023H4.885
			c-0.565,0-1.025-0.459-1.025-1.023V20.92c0.362,0.13,0.746,0.213,1.152,0.213c0.406,0,0.788-0.083,1.151-0.213V22.959z
			 M7.157,18.85c-0.229,0.42-0.573,0.762-0.994,0.989c-0.345,0.185-0.733,0.3-1.151,0.3s-0.808-0.115-1.152-0.3
			c-0.421-0.228-0.766-0.569-0.994-0.989c-0.189-0.347-0.307-0.74-0.307-1.164c0-0.422,0.118-0.814,0.307-1.162
			c0.229-0.422,0.573-0.764,0.994-0.99c0.344-0.186,0.733-0.299,1.152-0.299c0.418,0,0.807,0.113,1.151,0.299
			c0.421,0.229,0.765,0.568,0.994,0.99c0.189,0.348,0.307,0.74,0.307,1.162C7.464,18.109,7.346,18.503,7.157,18.85z"/>
		<path display="inline" fill="#a2acb3" d="M10.819,10.964v11.995c0,1.116,0.903,2.02,2.02,2.02h0.253c1.117,0,2.02-0.902,2.02-2.02
			V10.964c0.787-0.633,1.303-1.591,1.303-2.676c0-1.086-0.516-2.043-1.303-2.676V3.014c0-1.117-0.901-2.02-2.02-2.02h-0.253
			c-1.116,0-2.02,0.903-2.02,2.02v2.598c-0.786,0.633-1.301,1.59-1.301,2.676C9.518,9.373,10.033,10.331,10.819,10.964z
			 M14.117,22.959c0,0.566-0.46,1.023-1.025,1.023h-0.253c-0.565,0-1.025-0.457-1.025-1.023V11.522
			c0.362,0.129,0.746,0.212,1.152,0.212c0.406,0,0.79-0.083,1.152-0.212L14.117,22.959L14.117,22.959z M11.813,3.014
			c0-0.565,0.46-1.025,1.025-1.025h0.253c0.565,0,1.025,0.46,1.025,1.025v2.039C13.754,4.924,13.37,4.84,12.964,4.84
			c-0.406,0-0.79,0.083-1.152,0.213L11.813,3.014L11.813,3.014z M10.819,7.124c0.229-0.42,0.573-0.762,0.994-0.989
			c0.345-0.186,0.733-0.3,1.152-0.3s0.807,0.114,1.152,0.3c0.422,0.228,0.765,0.569,0.994,0.989c0.188,0.348,0.307,0.74,0.307,1.164
			c0,0.424-0.117,0.815-0.307,1.163c-0.229,0.42-0.572,0.762-0.994,0.99c-0.346,0.185-0.733,0.3-1.152,0.3s-0.807-0.115-1.152-0.3
			c-0.421-0.228-0.765-0.569-0.994-0.99c-0.189-0.348-0.307-0.739-0.307-1.163C10.512,7.864,10.63,7.472,10.819,7.124z"/>
		<path display="inline" fill="#a2acb3" d="M23.066,15.012V3.014c0-1.116-0.903-2.02-2.021-2.02h-0.253
			c-1.117,0-2.02,0.904-2.02,2.02v11.998c-0.787,0.633-1.303,1.588-1.303,2.674s0.516,2.045,1.303,2.678v2.597
			c0,1.116,0.901,2.021,2.02,2.021h0.253c1.116,0,2.021-0.903,2.021-2.021v-2.597c0.785-0.633,1.301-1.592,1.301-2.678
			S23.854,15.645,23.066,15.012z M19.77,3.014c0-0.565,0.461-1.025,1.024-1.025h0.253c0.564,0,1.023,0.46,1.023,1.025v11.437
			c-0.362-0.129-0.743-0.213-1.15-0.213c-0.404,0-0.79,0.084-1.15,0.213V3.014z M22.07,22.959c0,0.564-0.459,1.023-1.023,1.023
			h-0.253c-0.563,0-1.024-0.459-1.024-1.023V20.92c0.36,0.13,0.746,0.213,1.15,0.213c0.407,0,0.788-0.083,1.15-0.213V22.959z
			 M23.066,18.85c-0.23,0.42-0.572,0.762-0.996,0.989c-0.346,0.185-0.731,0.3-1.15,0.3s-0.809-0.115-1.15-0.3
			c-0.422-0.228-0.766-0.569-0.994-0.989c-0.19-0.347-0.308-0.74-0.308-1.164c0-0.422,0.116-0.814,0.308-1.162
			c0.229-0.422,0.572-0.764,0.994-0.99c0.344-0.186,0.731-0.299,1.15-0.299s0.807,0.113,1.15,0.299
			c0.424,0.229,0.766,0.568,0.996,0.99c0.188,0.348,0.306,0.74,0.306,1.162C23.372,18.109,23.255,18.503,23.066,18.85z"/>
	</g>
	<g id="Layer_5" display="none">
		<path display="inline" fill="#a2acb3" d="M24.477,9.909l-8.404-8.362c-0.338-0.336-0.781-0.504-1.223-0.504
			c-0.443,0-0.886,0.168-1.225,0.504l-5.911,5.88l0,0L4.29,10.833c-0.674,0.671-0.674,1.761,0,2.433l2.632,2.621l-5.251,5.225
			c-0.895,0.889-0.895,2.332,0,3.223c0.895,0.889,2.345,0.889,3.239,0l5.251-5.227l2.535,2.521c0.675,0.671,1.77,0.671,2.445,0
			l3.426-3.406h-0.002l5.91-5.881C25.152,11.671,25.152,10.581,24.477,9.909z M23.76,11.63l-5.848,5.817l-1.17-1.161l1.955-1.943
			c0.218-0.219,0.218-0.573,0-0.792c-0.223-0.219-0.578-0.217-0.799,0l-1.953,1.943l-0.774-0.771l2.739-2.725
			c0.22-0.219,0.22-0.573,0.002-0.792c-0.223-0.218-0.578-0.218-0.799,0l-2.738,2.726l-0.773-0.771l3.522-3.505
			c0.22-0.22,0.22-0.574,0-0.792c-0.22-0.218-0.576-0.218-0.798,0l-3.522,3.505l-0.775-0.771l4.31-4.288
			c0.22-0.217,0.22-0.572,0-0.791c-0.22-0.219-0.575-0.219-0.798,0l-4.309,4.288l-0.774-0.771l5.095-5.069
			c0.219-0.219,0.219-0.574,0.002-0.792c-0.223-0.219-0.578-0.219-0.798,0L9.663,9.242l-1.17-1.163l5.849-5.819
			c0.135-0.135,0.314-0.209,0.508-0.209c0.188,0,0.369,0.074,0.506,0.209l8.404,8.363c0.137,0.135,0.209,0.313,0.209,0.503
			S23.896,11.495,23.76,11.63z"/>
	</g>
	<g id="Layer_6" display="none">
		<path display="inline" fill="#a2acb3" d="M24.52,6.706c-0.47-0.468-1.229-0.468-1.695,0.001l-3.92,3.919l-3.514-3.513l3.92-3.919
			c0.469-0.469,0.469-1.228,0-1.696c-0.47-0.468-1.229-0.468-1.697,0.001l-3.918,3.918l-2.713-2.715l-3.787,3.78
			C4.4,9.284,4.398,13.832,7.202,16.637l0.008,0.008l-5.683,5.658C1.205,22.586,1,22.998,1,23.461c0,0.85,0.69,1.54,1.541,1.54
			c0.427,0,0.813-0.175,1.093-0.456l5.739-5.738l0.009,0.01c1.4,1.4,3.237,2.103,5.075,2.103c1.836,0,3.671-0.7,5.074-2.103
			l3.785-3.774l-2.717-2.72l3.92-3.919C24.986,7.934,24.986,7.174,24.52,6.706z M18.715,18.001c-1.14,1.136-2.65,1.763-4.259,1.763
			c-1.61,0-3.122-0.627-4.26-1.765L8.017,15.82c-2.35-2.349-2.353-6.174-0.008-8.523l2.971-2.966l10.706,10.708L18.715,18.001z"/>
	</g>
	<g id="Layer_7" display="none">
		<g id="Layer_45_copy_4" display="inline">
			<path fill="#a2acb3" d="M18.535,1.025H7.461C6.102,1.025,5,2.127,5,3.486v19.053C5,23.898,6.102,25,7.461,25h11.076
				c1.357,0,2.461-1.102,2.461-2.461V3.486C20.998,2.127,19.896,1.025,18.535,1.025z M12.973,23.865c-0.553,0-1-0.447-1-1
				s0.448-1,1-1s1,0.447,1,1S13.523,23.865,12.973,23.865z M18.973,21h-12V3.025h12V21z"/>
		</g>
	</g>
	<g id="Layer_8" display="none">
		<g id="Layer_11_copy_28" display="inline">
			<path fill="#a2acb3" d="M19.906,7v8v8h-10V7h6 M17.906,5h-10v20h14V5H17.906z"/>
			<polygon fill="#a2acb3" points="6.906,21 3.906,21 3.906,1 17.906,1 17.906,4 15.906,4 15.906,3 5.906,3 5.906,19 6.906,19 			
				"/>
		</g>
	</g>
</g>
<g id="Layer_2">
	<path fill="#a2acb3" d="M13,2.5c0.099,0.006,0.285,0.104,0.373,0.178l5.125,4.627l3.653,3.298
		c-0.385,0.033-0.818-0.053-1.026,0.225c-0.187,0.25-0.13,0.9-0.13,1.236l-0.002,10.808c0,0.346-0.287,0.628-0.639,0.628h-4.146
		v-5.542c0-1.282-1.043-2.325-2.325-2.325h-1.766c-1.282,0-2.325,1.043-2.325,2.325V23.5H5.646c-0.353,0-0.641-0.282-0.641-0.627
		l0.001-10.809c0-0.397,0.056-0.986-0.226-1.268c-0.199-0.199-0.534-0.154-0.933-0.193l3.653-3.298l5.112-4.616
		C12.715,2.605,12.901,2.506,13,2.5 M13,1c-0.765,0.004-1.378,0.565-1.378,0.565L6.497,6.192l-4.699,4.243
		c0,0-0.742,0.536-0.516,1.12c0.189,0.49,1.203,0.51,1.203,0.51h1.022L3.505,22.873C3.507,24.046,4.464,25,5.646,25h5.646v-7.042
		c0-0.456,0.369-0.825,0.825-0.825h1.766c0.456,0,0.825,0.369,0.825,0.825V25h5.646c1.18,0,2.138-0.952,2.139-2.127l0.002-10.809
		h1.02c0,0,1.014-0.02,1.203-0.51c0.227-0.584-0.516-1.12-0.516-1.12l-4.699-4.243l-5.125-4.627C14.378,1.565,13.765,1.004,13,1
		L13,1z"/>
</g>
<g id="Layer_3_1_" display="none">
	<path display="inline" fill="#a2acb3" d="M21.969,14.217v-2.433l-2.667-0.623c-0.134-0.463-0.315-0.905-0.543-1.319l1.443-2.324
		l-1.72-1.721l-2.324,1.444c-0.414-0.228-0.856-0.409-1.318-0.544l-0.623-2.666h-2.433L11.16,6.697
		c-0.462,0.135-0.903,0.315-1.317,0.543L7.519,5.796L5.798,7.518L7.242,9.84c-0.229,0.415-0.41,0.857-0.545,1.321l-2.666,0.623
		v2.433l2.666,0.623c0.135,0.462,0.316,0.905,0.544,1.318l-1.443,2.323l1.721,1.72l2.322-1.442c0.415,0.228,0.857,0.409,1.319,0.543
		l0.624,2.667h2.433l0.623-2.667c0.463-0.134,0.904-0.315,1.319-0.543l2.323,1.442l1.72-1.72l-1.442-2.323
		c0.227-0.413,0.408-0.856,0.542-1.318L21.969,14.217z M13,16.027c-1.672,0-3.027-1.354-3.027-3.027
		c0-1.672,1.355-3.027,3.027-3.027c1.673,0,3.027,1.355,3.027,3.027C16.027,14.673,14.673,16.027,13,16.027z"/>
</g>
<g id="Layer_3_copy" display="none">
	<g display="inline">
		<path fill="#D2D9E1" d="M14.726,22.688h-3.45l-0.662-2.831c-0.266-0.093-0.525-0.199-0.776-0.319L7.37,21.068L4.93,18.631
			l1.533-2.468c-0.119-0.248-0.226-0.507-0.319-0.775l-2.832-0.662v-3.451l2.832-0.661c0.093-0.268,0.2-0.528,0.32-0.778
			L4.931,7.369l2.439-2.44l2.469,1.534c0.248-0.12,0.507-0.226,0.774-0.319l0.662-2.831h3.45l0.662,2.832
			c0.268,0.093,0.527,0.2,0.774,0.319l2.47-1.533l2.438,2.44l-1.532,2.468c0.12,0.251,0.227,0.51,0.319,0.776l2.831,0.661v3.451
			l-2.832,0.661c-0.092,0.268-0.198,0.526-0.317,0.775l1.531,2.469l-2.438,2.438l-2.47-1.531c-0.25,0.12-0.509,0.227-0.775,0.319
			L14.726,22.688z M12.267,21.438h1.467l0.601-2.567l0.351-0.103c0.426-0.123,0.831-0.29,1.206-0.496l0.32-0.176l2.237,1.389
			l1.037-1.037l-1.389-2.236l0.176-0.32c0.204-0.373,0.371-0.778,0.496-1.206l0.102-0.351l2.567-0.601v-1.466l-2.567-0.6
			l-0.103-0.351c-0.123-0.424-0.29-0.831-0.496-1.208l-0.176-0.32l1.39-2.237l-1.037-1.038l-2.238,1.39l-0.32-0.177
			c-0.367-0.203-0.773-0.37-1.206-0.497l-0.35-0.103l-0.601-2.566h-1.467l-0.6,2.566l-0.35,0.103
			c-0.43,0.125-0.834,0.292-1.204,0.496L9.792,7.904L7.553,6.514L6.516,7.552l1.391,2.236l-0.177,0.32
			c-0.205,0.373-0.373,0.78-0.498,1.209l-0.103,0.35l-2.566,0.6v1.466l2.566,0.601l0.103,0.35c0.127,0.435,0.295,0.84,0.497,1.205
			l0.177,0.321l-1.39,2.237l1.037,1.037l2.235-1.389l0.32,0.176c0.378,0.206,0.784,0.373,1.208,0.496l0.351,0.103L12.267,21.438z
			 M13,16.685c-2.031,0-3.684-1.653-3.684-3.685S10.969,9.316,13,9.316s3.685,1.653,3.685,3.684S15.031,16.685,13,16.685z
			 M13,10.566c-1.342,0-2.434,1.092-2.434,2.434c0,1.343,1.092,2.435,2.434,2.435c1.343,0,2.435-1.092,2.435-2.435
			C15.435,11.658,14.343,10.566,13,10.566z"/>
	</g>
</g>
<g id="Layer_4_1_" display="none">
	<path display="inline" fill="#D2D9E1" d="M13,5.782c4.118,0,7.469,3.351,7.469,7.469c0,4.119-3.351,7.468-7.469,7.468
		s-7.469-3.35-7.469-7.468C5.531,9.132,8.882,5.782,13,5.782 M13,4.282c-4.953,0-8.969,4.016-8.969,8.969
		c0,4.953,4.016,8.968,8.969,8.968s8.969-4.016,8.969-8.968C21.969,8.297,17.953,4.282,13,4.282L13,4.282z"/>
	<path display="inline" fill="#D2D9E1" d="M13.925,12.543c0-0.511-0.414-0.925-0.925-0.925l0,0c-0.511,0-0.925,0.414-0.925,0.925
		v4.463c0,0.51,0.414,0.924,0.925,0.924l0,0c0.511,0,0.925-0.414,0.925-0.924V12.543z"/>
	<circle display="inline" fill="#D2D9E1" cx="13" cy="9.55" r="0.979"/>
</g>
<g id="Layer_4_copy" display="none">
	<path display="inline" fill="#D2D9E1" d="M12.115,15.845c0,0.489,0.396,0.885,0.885,0.885l0,0c0.49,0,0.886-0.396,0.886-0.885
		v-4.269c0-0.489-0.396-0.885-0.886-0.885l0,0c-0.489,0-0.885,0.396-0.885,0.885V15.845z"/>
	<circle display="inline" fill="#D2D9E1" cx="13" cy="18.709" r="0.937"/>
	<g display="inline">
		<path fill="#D2D9E1" d="M22.688,22.505H3.312c-0.268,0-0.516-0.143-0.649-0.375c-0.134-0.232-0.134-0.518,0-0.75L12.35,4.602
			c0.268-0.464,1.031-0.464,1.299,0l9.688,16.778c0.134,0.232,0.134,0.518,0,0.75S22.955,22.505,22.688,22.505z M4.611,21.005
			h16.777l-8.39-14.528L4.611,21.005z"/>
	</g>
</g>
<g id="Layer_6_1_" display="none">
</g>
<g id="Layer_4_copy_2" display="none">
	<polygon display="inline" fill="#a2acb3" points="4.41,10.698 4.409,10.704 4.411,10.695 	"/>
	<path display="inline" fill="#D2D9E1" d="M14.02,4.328C9.981,3.866,6.272,6.167,4.757,9.724c0,0.003-0.002,0.006-0.003,0.009
		c-0.089,0.199-0.091,0.408-0.05,0.606c0.062,0.302,0.245,0.575,0.547,0.711c0.502,0.228,1.096,0.005,1.324-0.498
		c1.166-2.788,4.067-4.599,7.217-4.239c3.817,0.437,6.568,3.897,6.133,7.715c-0.437,3.817-3.897,6.568-7.715,6.132
		c-2.196-0.251-4.019-1.515-5.104-3.26l1.932-0.948c0.085-0.042,0.14-0.129,0.14-0.225c0-0.095-0.054-0.183-0.14-0.225l-4.59-2.26
		c-0.069-0.034-0.15-0.035-0.221,0c-0.069,0.034-0.119,0.099-0.135,0.175l-1.018,5.014c-0.019,0.094,0.017,0.189,0.092,0.248
		c0.045,0.034,0.099,0.052,0.153,0.052c0.038,0,0.075-0.009,0.11-0.025l1.855-0.911c1.379,2.336,3.795,4.021,6.698,4.353
		c4.921,0.562,9.366-2.972,9.929-7.892C22.474,9.335,18.94,4.89,14.02,4.328z"/>
</g>
</svg>
