<?xml version="1.0" encoding="utf-8"?>
<!-- Generator: Adobe Illustrator 16.0.0, SVG Export Plug-In . SVG Version: 6.00 Build 0)  -->
<!DOCTYPE svg PUBLIC "-//W3C//DTD SVG 1.1//EN" "http://www.w3.org/Graphics/SVG/1.1/DTD/svg11.dtd">
<svg version="1.1" xmlns="http://www.w3.org/2000/svg" xmlns:xlink="http://www.w3.org/1999/xlink" x="0px" y="0px" width="26px"
	 height="26px" viewBox="0 0 26 26" enable-background="new 0 0 26 26" xml:space="preserve">
<g id="Layer_1" display="none">
	<path display="inline" fill="#a2acb3" d="M12.885,1.025c-5.461,0-10.049,3.649-11.512,8.637l2.387,0.659
		c0.163-0.538,0.827-1.868,1.219-2.409c0.85-1.175,1.687-2.072,2.81-2.794L9.209,6.54c0.536-0.306,1.114-0.545,1.722-0.712V3.819
		c0.63-0.133,1.283-0.206,1.953-0.206c0.69,0,1.361,0.079,2.01,0.22v1.994c0.608,0.167,1.187,0.406,1.723,0.712l1.4-1.401
		c1.119,0.728,2.072,1.686,2.795,2.809l-1.395,1.394c0.307,0.536,0.546,1.114,0.713,1.723h1.974c0.138,0.64,0.212,1.301,0.212,1.981
		s-0.074,1.341-0.212,1.982h-1.974c-0.167,0.606-0.406,1.187-0.713,1.722l1.395,1.395c-0.723,1.123-1.676,2.081-2.795,2.809
		l-1.4-1.4c-0.536,0.304-1.114,0.544-1.723,0.71v1.995c-0.648,0.14-1.319,0.221-2.01,0.221c-0.67,0-1.323-0.073-1.953-0.207v-2.009
		c-0.608-0.166-1.187-0.406-1.722-0.71l-1.422,1.421c-1.123-0.724-2.082-1.675-2.81-2.794l1.479-1.491L1,14.974l-0.001,5.735
		l1.875-1.027c2.148,3.244,5.827,5.385,10.011,5.385c6.639,0,12.021-5.383,12.021-12.021C24.905,6.407,19.523,1.025,12.885,1.025z"
		/>
</g>
<g id="Layer_2" display="none">
	<g id="Compass" display="inline">
		<g>
			<path fill="#a2acb3" d="M21.501,4.513c-4.684-4.684-12.305-4.684-16.989,0c-4.684,4.684-4.684,12.305,0,16.989
				c4.684,4.685,12.305,4.685,16.989,0C26.186,16.818,26.186,9.197,21.501,4.513z M20.439,20.44c-4.098,4.099-10.768,4.099-14.866,0
				c-4.099-4.098-4.099-10.768,0-14.866c4.098-4.099,10.768-4.099,14.866,0C24.538,9.673,24.538,16.343,20.439,20.44z
				 M11.912,11.646c-0.677,0.678-0.679,1.777,0,2.456c0.679,0.678,1.777,0.677,2.456,0c0.677-0.677,4.944-7.4,4.944-7.4
				S12.589,10.97,11.912,11.646z M6.635,18.317c-0.292,0.292-0.293,0.767,0,1.061c0.294,0.294,0.769,0.293,1.062,0
				c0.294-0.293,0.294-0.768,0-1.061C7.404,18.022,6.929,18.022,6.635,18.317z M18.316,18.317c-0.295,0.293-0.295,0.767,0,1.061
				c0.293,0.294,0.767,0.294,1.061,0s0.294-0.768,0-1.061C19.083,18.022,18.609,18.022,18.316,18.317z M6.635,6.636
				c-0.293,0.294-0.293,0.769,0,1.062c0.294,0.294,0.769,0.294,1.062,0c0.294-0.293,0.294-0.768,0-1.062
				C7.404,6.343,6.929,6.343,6.635,6.636z M21.266,12.257c-0.414,0-0.751,0.336-0.751,0.75c0,0.415,0.337,0.751,0.751,0.751
				s0.751-0.336,0.751-0.751C22.017,12.593,21.68,12.257,21.266,12.257z M4.747,12.257c-0.414,0-0.75,0.336-0.75,0.75
				c0,0.415,0.336,0.751,0.75,0.751c0.416,0,0.751-0.336,0.751-0.751C5.498,12.593,5.163,12.257,4.747,12.257z M13.006,20.516
				c-0.415,0-0.75,0.336-0.75,0.751s0.336,0.751,0.75,0.751c0.415,0,0.751-0.336,0.751-0.751S13.421,20.516,13.006,20.516z
				 M13.006,5.499c0.415,0,0.751-0.335,0.751-0.751c0-0.415-0.336-0.75-0.751-0.75c-0.415,0-0.75,0.336-0.75,0.75
				C12.256,5.164,12.592,5.499,13.006,5.499z"/>
		</g>
	</g>
</g>
<g id="Layer_3" display="none">
	<g id="Shape_76" display="inline">
		<g>
			<path fill="#a2acb3" d="M11.87,17.504c3.1,0,5.623-3.069,5.623-6.841c0-3.772-2.522-6.84-5.623-6.84
				c-1.534,0-2.965,0.733-4.031,2.065C6.812,7.17,6.247,8.866,6.248,10.663C6.248,14.435,8.77,17.504,11.87,17.504z M11.87,5.321
				c2.273,0,4.123,2.396,4.123,5.341c0,2.945-1.85,5.341-4.123,5.341s-4.123-2.396-4.125-5.341C7.745,7.717,9.595,5.321,11.87,5.321
				z M16.592,16.754c-0.415,0-0.75,0.335-0.75,0.75c0,0.413,0.335,0.749,0.75,0.749c2.562,0,4.648,2.085,4.648,4.648
				c0,0.33-0.27,0.6-0.601,0.6H3.098c-0.33,0-0.599-0.27-0.599-0.6c0-2.563,2.085-4.648,4.647-4.648c0.414,0,0.75-0.336,0.75-0.749
				c0-0.415-0.335-0.75-0.75-0.75C3.757,16.754,1,19.511,1,22.901C1,24.059,1.941,25,3.098,25H20.64c1.157,0,2.1-0.941,2.1-2.099
				C22.739,19.511,19.981,16.754,16.592,16.754z M12.417,2.698c0.674-0.203,1.11-0.188,1.702-0.188c2.273,0,4.123,2.396,4.123,5.341
				c0,0.528,0.066,1.031,0.021,1.542c-0.038,0.413,0.155,0.807,0.559,0.901c0.058,0.014,0.114,0.02,0.172,0.02
				c0.34,0,0.574-0.227,0.655-0.572c0.142-0.608,0.094-1.247,0.094-1.891c0-3.772-2.522-6.84-5.623-6.84
				c-0.852,0-1.686,0.041-2.446,0.49c-0.356,0.211-0.474,0.67-0.263,1.027C11.619,2.885,12.021,2.818,12.417,2.698z M18.991,13.755
				c-0.414,0-0.75,0.336-0.75,0.75s0.336,0.749,0.75,0.749c2.562,0,4.498,2.136,4.498,4.698c0,0.086-0.023,1.03,0.445,1.234
				c0.099,0.043,0.202,0.064,0.304,0.064c0.288,0,0.497-0.177,0.621-0.456c0.119-0.27,0.129-0.545,0.129-0.843
				C24.988,16.562,22.382,13.755,18.991,13.755z"/>
		</g>
	</g>
</g>
<g id="Layer_4" display="none">
	<path display="inline" fill="#a2acb3" d="M7.157,15.011V3.014c0-1.116-0.903-2.02-2.02-2.02H4.885c-1.117,0-2.02,0.904-2.02,2.02
		v11.997c-0.787,0.633-1.301,1.589-1.301,2.675s0.514,2.044,1.301,2.677v2.597c0,1.116,0.903,2.02,2.02,2.02h0.252
		c1.117,0,2.02-0.903,2.02-2.02v-2.597c0.787-0.633,1.301-1.591,1.301-2.677S7.943,15.644,7.157,15.011z M3.859,3.014
		c0-0.565,0.46-1.025,1.025-1.025h0.252c0.565,0,1.025,0.46,1.025,1.025v11.437c-0.362-0.129-0.746-0.212-1.151-0.212
		s-0.79,0.083-1.152,0.212V3.014z M6.163,22.959c0,0.564-0.46,1.024-1.025,1.024H4.885c-0.565,0-1.025-0.46-1.025-1.024V20.92
		c0.362,0.13,0.746,0.213,1.152,0.213S5.8,21.05,6.163,20.92V22.959z M7.157,18.849c-0.229,0.421-0.573,0.763-0.994,0.99
		c-0.345,0.185-0.733,0.3-1.151,0.3c-0.418,0-0.808-0.115-1.152-0.3c-0.421-0.228-0.766-0.569-0.994-0.99
		c-0.189-0.346-0.307-0.739-0.307-1.163c0-0.422,0.118-0.815,0.307-1.162c0.229-0.422,0.573-0.764,0.994-0.991
		c0.344-0.185,0.733-0.298,1.152-0.298c0.418,0,0.807,0.113,1.151,0.298c0.421,0.228,0.765,0.569,0.994,0.991
		c0.189,0.347,0.307,0.74,0.307,1.162C7.464,18.109,7.346,18.503,7.157,18.849z"/>
	<path display="inline" fill="#a2acb3" d="M10.819,10.964v11.995c0,1.116,0.903,2.02,2.02,2.02h0.253c1.117,0,2.02-0.903,2.02-2.02
		V10.964c0.787-0.633,1.302-1.591,1.302-2.676c0-1.086-0.515-2.043-1.302-2.676V3.014c0-1.117-0.902-2.02-2.02-2.02h-0.253
		c-1.116,0-2.02,0.903-2.02,2.02v2.598c-0.786,0.633-1.301,1.59-1.301,2.676C9.518,9.373,10.033,10.331,10.819,10.964z
		 M14.117,22.959c0,0.566-0.46,1.024-1.025,1.024h-0.253c-0.565,0-1.025-0.458-1.025-1.024V11.522
		c0.362,0.129,0.746,0.212,1.152,0.212s0.79-0.083,1.152-0.212V22.959z M11.813,3.014c0-0.565,0.46-1.025,1.025-1.025h0.253
		c0.565,0,1.025,0.46,1.025,1.025v2.039c-0.362-0.129-0.746-0.213-1.152-0.213s-0.79,0.083-1.152,0.213V3.014z M10.819,7.124
		c0.229-0.42,0.573-0.762,0.994-0.989c0.345-0.186,0.733-0.3,1.152-0.3s0.807,0.114,1.152,0.3c0.422,0.228,0.765,0.569,0.994,0.989
		c0.189,0.348,0.307,0.74,0.307,1.164c0,0.424-0.117,0.815-0.307,1.163c-0.229,0.42-0.572,0.762-0.994,0.99
		c-0.345,0.185-0.733,0.3-1.152,0.3s-0.807-0.115-1.152-0.3c-0.421-0.228-0.765-0.569-0.994-0.99
		c-0.189-0.348-0.307-0.739-0.307-1.163C10.512,7.864,10.63,7.472,10.819,7.124z"/>
	<path display="inline" fill="#a2acb3" d="M23.066,15.011V3.014c0-1.116-0.903-2.02-2.02-2.02h-0.253c-1.117,0-2.02,0.904-2.02,2.02
		v11.997c-0.786,0.633-1.302,1.589-1.302,2.675s0.516,2.044,1.302,2.677v2.597c0,1.116,0.902,2.02,2.02,2.02h0.253
		c1.116,0,2.02-0.903,2.02-2.02v-2.597c0.786-0.633,1.301-1.591,1.301-2.677S23.853,15.644,23.066,15.011z M19.769,3.014
		c0-0.565,0.461-1.025,1.025-1.025h0.253c0.564,0,1.024,0.46,1.024,1.025v11.437c-0.363-0.129-0.744-0.212-1.151-0.212
		c-0.405,0-0.79,0.083-1.151,0.212V3.014z M22.071,22.959c0,0.564-0.46,1.024-1.024,1.024h-0.253c-0.564,0-1.025-0.46-1.025-1.024
		V20.92c0.361,0.13,0.746,0.213,1.151,0.213c0.407,0,0.788-0.083,1.151-0.213V22.959z M23.066,18.849
		c-0.23,0.421-0.572,0.763-0.995,0.99c-0.346,0.185-0.732,0.3-1.151,0.3s-0.808-0.115-1.151-0.3
		c-0.422-0.228-0.765-0.569-0.994-0.99c-0.19-0.346-0.307-0.739-0.307-1.163c0-0.422,0.116-0.815,0.307-1.162
		c0.229-0.422,0.572-0.764,0.994-0.991c0.344-0.185,0.732-0.298,1.151-0.298s0.806,0.113,1.151,0.298
		c0.423,0.228,0.765,0.569,0.995,0.991c0.188,0.347,0.306,0.74,0.306,1.162C23.372,18.109,23.255,18.503,23.066,18.849z"/>
</g>
<g id="Layer_5" display="none">
	<path display="inline" fill="#a2acb3" d="M24.476,9.909l-8.404-8.362c-0.338-0.336-0.781-0.504-1.223-0.504
		c-0.443,0-0.885,0.168-1.224,0.504l-5.911,5.88l0,0L4.29,10.833c-0.674,0.671-0.674,1.761,0,2.433l2.632,2.62l-5.251,5.225
		c-0.895,0.889-0.895,2.332,0,3.223c0.895,0.889,2.345,0.889,3.239,0l5.251-5.226l2.535,2.521c0.675,0.671,1.77,0.671,2.445,0
		l3.425-3.406l-0.002-0.001l5.911-5.88C25.152,11.671,25.152,10.581,24.476,9.909z M23.76,11.63l-5.848,5.818l-1.17-1.162
		l1.955-1.943c0.218-0.219,0.218-0.574,0-0.792c-0.222-0.219-0.578-0.217-0.798,0l-1.953,1.943l-0.775-0.771l2.739-2.725
		c0.22-0.219,0.22-0.573,0.002-0.792c-0.222-0.218-0.578-0.218-0.798,0l-2.739,2.725l-0.774-0.771l3.523-3.505
		c0.22-0.22,0.22-0.574,0-0.792c-0.22-0.218-0.576-0.218-0.798,0l-3.522,3.505l-0.775-0.771l4.31-4.288
		c0.22-0.217,0.22-0.572,0-0.791s-0.576-0.219-0.798,0l-4.309,4.288l-0.774-0.771l5.094-5.069c0.22-0.219,0.22-0.574,0.002-0.792
		c-0.222-0.219-0.578-0.219-0.797,0L9.663,9.242l-1.17-1.163l5.849-5.819c0.135-0.135,0.314-0.209,0.507-0.209
		c0.189,0,0.37,0.074,0.507,0.209l8.404,8.363c0.136,0.135,0.209,0.313,0.209,0.503S23.896,11.495,23.76,11.63z"/>
</g>
<g id="Layer_6" display="none">
	<path display="inline" fill="#a2acb3" d="M24.519,6.706c-0.469-0.468-1.228-0.468-1.695,0.001l-3.919,3.919l-3.514-3.513
		l3.919-3.919c0.469-0.469,0.469-1.228,0-1.696s-1.228-0.468-1.696,0.001l-3.919,3.918l-2.713-2.715l-3.787,3.78
		c-2.795,2.802-2.797,7.35,0.007,10.155l0.008,0.008l-5.683,5.658c-0.322,0.283-0.527,0.695-0.527,1.158
		c0,0.85,0.69,1.54,1.541,1.54c0.427,0,0.813-0.175,1.093-0.456l5.739-5.738l0.009,0.009c1.4,1.401,3.237,2.103,5.075,2.103
		c1.836,0,3.671-0.7,5.074-2.102l3.786-3.775L20.6,12.322l3.919-3.919C24.987,7.934,24.987,7.174,24.519,6.706z M18.715,18.001
		c-1.14,1.136-2.65,1.763-4.259,1.763c-1.61,0-3.122-0.627-4.26-1.765L8.017,15.82c-2.35-2.349-2.353-6.174-0.008-8.523l2.971-2.966
		l10.705,10.708L18.715,18.001z"/>
</g>
<g id="Layer_7">
	<g id="Layer_45_copy_4">
		<path fill="#a2acb3" d="M18.535,1.025H7.461C6.102,1.025,5,2.127,5,3.486v19.053C5,23.898,6.102,25,7.461,25h11.076
			c1.358,0,2.461-1.102,2.461-2.461V3.486C20.998,2.127,19.896,1.025,18.535,1.025z M12.973,23.865c-0.553,0-1-0.447-1-1
			s0.448-1,1-1s1,0.447,1,1S13.524,23.865,12.973,23.865z M18.973,21h-12V3.025h12V21z"/>
	</g>
</g>
<g id="Layer_8" display="none">
	<g id="Layer_11_copy_28" display="inline">
		<path fill="#a2acb3" d="M19.906,7v8v8h-10V7h6 M17.906,5h-10v20h14V5H17.906z"/>
		<polygon fill="#a2acb3" points="6.906,21 3.906,21 3.906,1 17.906,1 17.906,4 15.906,4 15.906,3 5.906,3 5.906,19 6.906,19 		"/>
	</g>
</g>
</svg>
