<svg xmlns="http://www.w3.org/2000/svg" width="20" height="20" viewBox="0 0 20 20" enable-background="new 0 0 20 20"><g fill="#a2acb3"><path d="m17.815 4c-.644-.644-8.658 5.829-8.658 5.829s-2.851-1.232-3.835-1.232c-.138 0-.25.034-.328.112-.5.5 4.173 6.04 4.173 6.04s9.422-9.977 8.648-10.75"/><path d="m15.859 8.721c.09.412.141.84.141 1.279 0 3.309-2.691 6-6 6s-6-2.691-6-6 2.691-6 6-6c1.252 0 2.415.387 3.378 1.045.599-.455 1.173-.871 1.702-1.225-1.382-1.137-3.151-1.82-5.08-1.82-4.418 0-8 3.582-8 8 0 4.418 3.582 8 8 8 4.418 0 8-3.582 8-8 0-1.098-.222-2.144-.622-3.097-.446.576-.964 1.19-1.519 1.818"/></g></svg>